<svg width="350" height="100" viewBox="0 0 350 100" fill="none" xmlns="http://www.w3.org/2000/svg">
<path d="M83.1803 71.8894C77.7558 70.0212 72.9678 66.662 69.3651 62.1971C65.3945 57.2224 60.3387 53.2219 54.5843 50.5014C48.83 47.781 42.5297 46.4127 36.1653 46.5014C27.604 45.8951 19.1284 48.5356 12.4265 53.8972C5.72445 59.2588 1.28779 66.948 0 75.4336C2.53644 71.1896 6.35392 67.8596 10.9031 65.923C15.4522 63.9864 20.4985 63.5429 25.3157 64.6564C30.7311 66.579 35.5113 69.9577 39.1309 74.421C43.1233 79.3559 48.1887 83.3152 53.9418 85.9974C59.6949 88.6797 65.984 90.0143 72.3307 89.8998C80.892 90.5061 89.3675 87.8655 96.0695 82.5039C102.772 77.1423 107.208 69.4531 108.496 60.9675C106.006 65.2623 102.2 68.6425 97.6418 70.6092C93.0833 72.5758 88.0133 73.0247 83.1803 71.8894Z" fill="#E54D7B"/>
<path d="M66.647 6.6906C100.688 -9.96484 115.719 10.4879 115.719 10.4879C115.719 10.4879 128.814 7.7348 134.578 15.2081C134.578 15.2081 127.445 15.3684 124.369 20.6954C121.396 25.8453 124.917 31.9403 118.916 42.3355C105.567 65.4557 80.1409 65.3886 80.1409 65.3886C105.751 52.3941 104.346 32.602 104.346 32.602C93.5372 38.9047 56.2628 43.9888 56.2628 43.9888C80.9449 35.0465 89.1224 29.7594 89.1224 29.7594C82.8642 32.1641 57.6996 34.4072 57.6996 34.4072C73.576 30.1523 99.1623 18.2472 99.1623 18.2472C86.9654 3.55551 66.647 6.6906 66.647 6.6906Z" fill="#E54D7B"/>
<path d="M126.361 90.3184C120.736 90.3184 116.793 88.1586 115.512 84.969C115.336 84.5169 115.261 84.1151 115.261 83.7383C115.261 82.2315 116.366 81.2771 117.872 81.2771C118.902 81.2771 119.781 81.7543 120.585 82.8091C121.991 84.8434 123.599 85.7475 126.587 85.7475C129.501 85.7475 131.434 84.5169 131.434 82.5077C131.434 80.9004 130.43 80.0214 127.692 79.3935L123.373 78.414C118.174 77.2336 115.612 74.6719 115.612 70.8042C115.612 65.8566 119.882 62.6168 126.462 62.6168C131.585 62.6168 135.553 65.1283 136.382 68.1923C136.457 68.5188 136.508 68.8202 136.508 69.1215C136.508 70.4275 135.679 71.3567 134.097 71.3567C133.193 71.3567 132.288 71.0303 131.711 70.2015C130.48 68.3681 128.948 67.2128 126.311 67.2128C123.574 67.2128 121.69 68.5439 121.69 70.4526C121.69 72.0097 122.845 73.0646 125.608 73.6924L129.852 74.6217C135.478 75.9025 137.713 77.9368 137.713 81.8799C137.713 86.9782 133.142 90.3184 126.361 90.3184ZM144.971 90.2933C143.138 90.2933 141.832 89.1129 141.832 87.0033V56.3381C141.832 54.2284 143.138 53.0481 144.971 53.0481C146.805 53.0481 148.086 54.2284 148.086 56.3381V87.0033C148.086 89.1129 146.805 90.2933 144.971 90.2933ZM156.675 59.4272C154.741 59.4272 153.209 57.9203 153.209 56.0367C153.209 54.128 154.741 52.6462 156.675 52.6462C158.634 52.6462 160.166 54.128 160.166 56.0367C160.166 57.9203 158.634 59.4272 156.675 59.4272ZM156.675 90.2933C154.766 90.2933 153.561 89.0376 153.561 87.0033V65.9319C153.561 63.9228 154.766 62.6419 156.675 62.6419C158.584 62.6419 159.814 63.9228 159.814 65.9571V87.0033C159.814 89.0376 158.584 90.2933 156.675 90.2933ZM168.177 99.2593C166.344 99.2593 165.063 98.0789 165.063 95.9693V65.8566C165.063 63.7972 166.319 62.6419 168.102 62.6419C169.885 62.6419 171.166 63.7972 171.166 65.8566V67.7653H171.292C172.799 64.6762 175.812 62.7173 179.68 62.7173C186.436 62.7173 190.731 67.9662 190.731 76.4802C190.731 84.969 186.461 90.218 179.78 90.218C175.913 90.218 172.899 88.3595 171.442 85.3708H171.317V95.9693C171.317 98.0789 170.011 99.2593 168.177 99.2593ZM177.771 85.0945C181.815 85.0945 184.326 81.7543 184.326 76.4802C184.326 71.2312 181.815 67.8658 177.771 67.8658C173.878 67.8658 171.292 71.3065 171.267 76.4802C171.292 81.704 173.878 85.0945 177.771 85.0945ZM205.021 90.3184C199.395 90.3184 195.452 88.1586 194.171 84.969C193.995 84.5169 193.92 84.1151 193.92 83.7383C193.92 82.2315 195.025 81.2771 196.532 81.2771C197.562 81.2771 198.441 81.7543 199.244 82.8091C200.651 84.8434 202.258 85.7475 205.247 85.7475C208.16 85.7475 210.094 84.5169 210.094 82.5077C210.094 80.9004 209.089 80.0214 206.352 79.3935L202.032 78.414C196.833 77.2336 194.272 74.6719 194.272 70.8042C194.272 65.8566 198.541 62.6168 205.121 62.6168C210.245 62.6168 214.213 65.1283 215.042 68.1923C215.117 68.5188 215.167 68.8202 215.167 69.1215C215.167 70.4275 214.338 71.3567 212.756 71.3567C211.852 71.3567 210.948 71.0303 210.37 70.2015C209.14 68.3681 207.608 67.2128 204.971 67.2128C202.233 67.2128 200.349 68.5439 200.349 70.4526C200.349 72.0097 201.505 73.0646 204.267 73.6924L208.512 74.6217C214.138 75.9025 216.373 77.9368 216.373 81.8799C216.373 86.9782 211.802 90.3184 205.021 90.3184ZM222.049 83.2109V67.9914H220.366C218.809 67.9914 217.855 67.0621 217.855 65.5552C217.855 64.0735 218.809 63.1693 220.366 63.1693H222.049V59.6281C222.049 57.6189 223.254 56.3632 225.188 56.3632C227.097 56.3632 228.302 57.6189 228.302 59.6281V63.1693H231.19C232.748 63.1693 233.702 64.0735 233.702 65.5552C233.702 67.0621 232.748 67.9914 231.19 67.9914H228.302V81.8547C228.302 83.8639 229.006 84.7429 230.814 84.8936L231.266 84.9439C232.923 85.0945 233.777 85.7978 233.777 87.2544C233.777 89.0878 232.17 90.0673 229.307 90.0673H229.056C224.409 90.0673 222.049 87.7567 222.049 83.2109ZM240.709 90.2933C238.825 90.2933 237.595 89.0627 237.595 87.0033V65.8064C237.595 63.8474 238.8 62.6419 240.583 62.6419C242.316 62.6419 243.547 63.8474 243.547 65.8064V67.8407H243.673C244.401 64.7264 246.711 62.7173 249.374 62.7173C250.353 62.7173 251.107 62.9684 251.584 63.3954C252.161 63.8725 252.463 64.626 252.463 65.6557C252.463 66.6352 252.161 67.3635 251.533 67.8658C250.931 68.3932 250.001 68.6695 248.771 68.6946C245.205 68.7197 243.848 70.9549 243.848 74.1947V87.0033C243.848 89.0627 242.593 90.2933 240.709 90.2933ZM266.1 90.3184C257.963 90.3184 253.166 85.2201 253.166 76.5806C253.166 68.0918 258.063 62.6168 265.748 62.6168C273.032 62.6168 278.004 67.7904 278.004 75.0235C278.004 76.882 276.95 77.9871 275.091 77.9871H259.394V78.188C259.394 82.6333 261.981 85.4964 266.05 85.4964C268.863 85.4964 270.696 84.5169 272.705 81.9552C273.358 81.2269 273.936 80.9506 274.815 80.9506C276.221 80.9506 277.326 81.8547 277.326 83.3616C277.326 83.8388 277.176 84.3913 276.899 84.9439C275.141 88.3344 271.173 90.3184 266.1 90.3184ZM259.445 73.8682H271.876C271.751 70.0005 269.29 67.464 265.774 67.464C262.258 67.464 259.696 70.0508 259.445 73.8682ZM289.859 90.218C284.71 90.218 280.968 86.9782 280.968 82.1812C280.968 77.4596 284.61 74.6217 291.089 74.2198L298.147 73.818V71.9093C298.147 69.1215 296.263 67.5142 293.174 67.5142C290.738 67.5142 289.155 68.343 287.598 70.6284C286.945 71.4823 286.117 71.8842 285.062 71.8842C283.53 71.8842 282.425 70.8796 282.425 69.3727C282.425 68.795 282.575 68.2425 282.852 67.6649C284.208 64.5757 288.327 62.6168 293.425 62.6168C300.03 62.6168 304.325 66.1078 304.325 71.4572V87.154C304.325 89.1631 303.044 90.2933 301.286 90.2933C299.578 90.2933 298.398 89.2636 298.297 87.4051V85.5466H298.172C296.64 88.4348 293.299 90.218 289.859 90.218ZM291.767 85.4964C295.283 85.4964 298.147 83.1356 298.147 79.9209V77.8866L291.968 78.2633C288.955 78.4642 287.222 79.8204 287.222 81.9301C287.222 84.1151 289.055 85.4964 291.767 85.4964ZM312.487 90.2933C310.604 90.2933 309.373 89.0878 309.373 87.0033V65.8315C309.373 63.7972 310.604 62.6419 312.362 62.6419C314.12 62.6419 315.375 63.7972 315.375 65.8315V67.7904H315.501C316.656 64.7013 319.469 62.667 323.086 62.667C326.853 62.667 329.54 64.6009 330.52 68.0165H330.67C331.951 64.7264 335.116 62.667 338.958 62.667C344.207 62.667 347.648 66.2082 347.648 71.5326V87.0033C347.648 89.0878 346.392 90.2933 344.534 90.2933C342.65 90.2933 341.394 89.0878 341.394 87.0033V73.0646C341.394 69.7996 339.686 67.9411 336.622 67.9411C333.609 67.9411 331.549 70.1512 331.549 73.3408V87.0033C331.549 89.0878 330.369 90.2933 328.51 90.2933C326.627 90.2933 325.471 89.0878 325.471 87.0033V72.7381C325.471 69.7745 323.663 67.9411 320.75 67.9411C317.736 67.9411 315.626 70.2768 315.626 73.4915V87.0033C315.626 89.0878 314.346 90.2933 312.487 90.2933Z" fill="#E54D7B"/>
<path d="M255.891 50.2344C255.047 50.2344 254.473 49.7188 254.473 48.7695V34.3906C254.473 33.4062 255.082 32.8555 255.938 32.8555C256.793 32.8555 257.391 33.4062 257.391 34.3906V39.7109H257.461C258.176 38.2578 259.582 37.3672 261.352 37.3672C264.48 37.3672 266.473 39.8164 266.473 43.7891C266.473 47.7617 264.492 50.1992 261.34 50.1992C259.523 50.1992 258.129 49.3203 257.391 47.8789H257.332V48.7695C257.332 49.707 256.734 50.2344 255.891 50.2344ZM260.449 47.8086C262.312 47.8086 263.484 46.2617 263.484 43.7891C263.484 41.3281 262.312 39.7695 260.449 39.7695C258.645 39.7695 257.379 41.375 257.379 43.7891C257.379 46.2266 258.645 47.8086 260.449 47.8086ZM272.707 50.2227C270.012 50.2227 268.301 48.4766 268.301 45.6055V38.8672C268.301 37.8945 268.898 37.332 269.754 37.332C270.609 37.332 271.219 37.8945 271.219 38.8789V45.0195C271.219 46.8008 272.086 47.7617 273.727 47.7617C275.414 47.7617 276.457 46.5664 276.457 44.7617V38.8672C276.457 37.8945 277.066 37.332 277.922 37.332C278.766 37.332 279.375 37.8945 279.375 38.8789V48.7578C279.375 49.6953 278.812 50.2344 277.98 50.2344C277.137 50.2344 276.562 49.6953 276.562 48.7578V47.8438H276.504C275.848 49.3555 274.594 50.2227 272.707 50.2227ZM283.289 35.832C282.387 35.832 281.672 35.1289 281.672 34.25C281.672 33.3594 282.387 32.668 283.289 32.668C284.203 32.668 284.918 33.3594 284.918 34.25C284.918 35.1289 284.203 35.832 283.289 35.832ZM283.289 50.2344C282.398 50.2344 281.836 49.6484 281.836 48.6992V38.8672C281.836 37.9297 282.398 37.332 283.289 37.332C284.18 37.332 284.754 37.9297 284.754 38.8789V48.6992C284.754 49.6484 284.18 50.2344 283.289 50.2344ZM288.75 50.2344C287.895 50.2344 287.285 49.6836 287.285 48.6992V34.3906C287.285 33.4062 287.895 32.8555 288.75 32.8555C289.605 32.8555 290.203 33.4062 290.203 34.3906V48.6992C290.203 49.6836 289.605 50.2344 288.75 50.2344ZM293.496 46.9297V39.8281H292.711C291.984 39.8281 291.539 39.3945 291.539 38.6914C291.539 38 291.984 37.5781 292.711 37.5781H293.496V35.9258C293.496 34.9883 294.059 34.4023 294.961 34.4023C295.852 34.4023 296.414 34.9883 296.414 35.9258V37.5781H297.762C298.488 37.5781 298.934 38 298.934 38.6914C298.934 39.3945 298.488 39.8281 297.762 39.8281H296.414V46.2969C296.414 47.2344 296.742 47.6445 297.586 47.7148L297.797 47.7383C298.57 47.8086 298.969 48.1367 298.969 48.8164C298.969 49.6719 298.219 50.1289 296.883 50.1289H296.766C294.598 50.1289 293.496 49.0508 293.496 46.9297ZM309.48 50.2344C308.496 50.2344 307.957 49.7773 307.652 48.7344L304.957 39.4531C304.863 39.0898 304.816 38.8438 304.816 38.5859C304.816 37.8477 305.391 37.332 306.223 37.332C306.949 37.332 307.406 37.7539 307.582 38.5625L309.645 47.1172H309.703L311.871 38.668C312.07 37.8008 312.645 37.332 313.535 37.332C314.414 37.332 314.977 37.7891 315.176 38.668L317.355 47.1172H317.426L319.488 38.5508C319.664 37.7422 320.109 37.332 320.824 37.332C321.656 37.332 322.219 37.8359 322.219 38.5742C322.219 38.832 322.172 39.0781 322.066 39.4297L319.383 48.7344C319.09 49.7539 318.516 50.2344 317.531 50.2344C316.488 50.2344 315.926 49.7891 315.656 48.7227L313.523 40.918H313.465L311.332 48.7344C311.086 49.7539 310.488 50.2344 309.48 50.2344ZM325.383 35.832C324.48 35.832 323.766 35.1289 323.766 34.25C323.766 33.3594 324.48 32.668 325.383 32.668C326.297 32.668 327.012 33.3594 327.012 34.25C327.012 35.1289 326.297 35.832 325.383 35.832ZM325.383 50.2344C324.492 50.2344 323.93 49.6484 323.93 48.6992V38.8672C323.93 37.9297 324.492 37.332 325.383 37.332C326.273 37.332 326.848 37.9297 326.848 38.8789V48.6992C326.848 49.6484 326.273 50.2344 325.383 50.2344ZM330.105 46.9297V39.8281H329.32C328.594 39.8281 328.148 39.3945 328.148 38.6914C328.148 38 328.594 37.5781 329.32 37.5781H330.105V35.9258C330.105 34.9883 330.668 34.4023 331.57 34.4023C332.461 34.4023 333.023 34.9883 333.023 35.9258V37.5781H334.371C335.098 37.5781 335.543 38 335.543 38.6914C335.543 39.3945 335.098 39.8281 334.371 39.8281H333.023V46.2969C333.023 47.2344 333.352 47.6445 334.195 47.7148L334.406 47.7383C335.18 47.8086 335.578 48.1367 335.578 48.8164C335.578 49.6719 334.828 50.1289 333.492 50.1289H333.375C331.207 50.1289 330.105 49.0508 330.105 46.9297ZM338.906 50.2344C338.051 50.2344 337.441 49.6836 337.441 48.6992V34.3555C337.441 33.4297 337.992 32.8555 338.883 32.8555C339.785 32.8555 340.324 33.4297 340.324 34.3555V39.7109H340.383C341.051 38.1992 342.422 37.3438 344.309 37.3438C347.051 37.3438 348.656 39.1484 348.656 41.9961V48.6992C348.656 49.6836 348.047 50.2344 347.191 50.2344C346.336 50.2344 345.738 49.6836 345.738 48.6992V42.5938C345.738 40.8594 344.871 39.8164 343.184 39.8164C341.426 39.8164 340.359 41.0352 340.359 42.8633V48.6992C340.359 49.6836 339.762 50.2344 338.906 50.2344Z" fill="#E54D7B"/>
</svg>
